Coordinates
version=1
nRows=10
nColumns=33
inDegrees=yes

Units are S.I. units (second, meters, Newtons, ...)
Angles are in degrees.

endheader
time	ground_thorax_rot_x	ground_thorax_rot_y	ground_thorax_rot_z	ground_thorax_tx	ground_thorax_ty	ground_thorax_tz	clav_prot_r	clav_elev_r	scapula_abduction_r	scapula_elevation_r	scapula_upward_rot_r	scapula_winging_r	shoulder_elv_r	plane_of_elev_r	axial_rot_r	elbow_flexion_r	pro_sup_r	wrist_flex_r	wrist_dev_r	clav_prot_l	clav_elev_l	scapula_abduction_l	scapula_elevation_l	scapula_upward_rot_l	scapula_winging_l	shoulder_elv_l	plane_of_elev_l	axial_rot_l	elbow_flexion_l	pro_sup_l	wrist_flex_l	wrist_dev_l
      6.97000000	     25.20698241	     31.07518540	     44.99886712	    -86.16612799	    848.69783893	    -47.55249036	     13.39357981	     34.25929768	     28.11651673	     45.00000000	    -45.00000000	    270.64268028	  -1366.13434082	     21.67350703	   -161.39058264	   2518.58562453	    159.48599594	     15.79591203	     14.99971192	     -6.91447806	    -45.00000000	    -40.76154631	     45.00000000	    -45.00000000	   3705.47829217	  -2439.83782466	     25.94408279	     30.03806480	   1067.98180029	     34.22054526	     14.83645864	    -19.55895066
      6.98000000	     25.32771530	     30.97956287	     44.91120704	    -85.09207399	    848.38196172	    -47.48941768	     13.22176488	     34.33844236	     28.43016612	     45.00000000	    -45.00000000	    270.72921824	  -1366.29920859	     21.53011318	   -161.56394185	   2518.53845516	    159.48294294	     15.86955844	     14.97199981	     -6.83023343	    -45.00000000	    -40.63799837	     45.00000000	    -45.00000000	   3705.46719849	  -2439.94333947	     26.08541417	     30.22519780	   1067.99640484	     34.20959629	     14.92055569	    -19.59832660
      6.99000000	     24.96250382	     31.24052137	     45.47270341	    -83.99581990	    848.05919431	    -47.42755506	     13.45554408	     34.28560089	     28.21397362	     45.00000000	    -45.00000000	    270.72484721	  -1366.28518159	     21.66507979	   -161.75059505	   2518.62229252	    159.53844745	     15.60404687	     15.06101764	     -7.06882528	    -45.00000000	    -40.77977880	     45.00000000	    -45.00000000	   3705.35940289	  -2439.79812706	     25.90297209	     30.40247502	   1067.96889327	     34.24663323	     14.86840836	    -19.34500873
      7.00000000	     25.37828688	     30.97931792	     45.01399795	    -82.87427566	    847.72665860	    -47.36714868	     13.17044053	     34.37880142	     28.66897831	     45.00000000	    -45.00000000	    270.85675848	  -1366.37577995	     21.50354494	   -161.87067071	   2518.49284905	    159.55886830	     15.82553066	     14.99528569	     -6.80219544	    -45.00000000	    -40.51060306	     45.00000000	    -45.00000000	   3705.37990308	  -2440.08155133	     26.27201781	     30.54334981	   1067.99256183	     34.23801228	     15.02175483	    -19.49188070
      7.01000000	     25.18024759	     31.20812719	     45.40700324	    -81.73568078	    847.38515876	    -47.30883249	     13.34191392	     34.34086599	     28.40689128	     45.00000000	    -45.00000000	    270.80836944	  -1366.27967357	     21.74555043	   -162.03328827	   2518.52823887	    159.67061594	     15.59485663	     15.14485346	     -7.03684973	    -45.00000000	    -40.54955578	     45.00000000	    -45.00000000	   3705.24516439	  -2440.02072553	     26.15256708	     30.79560598	   1067.93496813	     34.28759614	     14.99322272	    -19.28522022
      7.02000000	     25.05304302	     31.30056814	     45.65898140	    -80.57279439	    847.03137433	    -47.25189475	     13.40914114	     34.38049361	     28.42960202	     45.00000000	    -45.00000000	    270.89072063	  -1366.33667962	     21.70993868	   -162.21994032	   2518.53765744	    159.75209720	     15.55558036	     15.04814845	     -7.08596079	    -45.00000000	    -40.57787471	     45.00000000	    -45.00000000	   3705.19273570	  -2439.99157933	     26.12581554	     30.93840814	   1067.93115976	     34.31734110	     15.00705489	    -19.19523412
      7.03000000	     24.98241423	     31.33041657	     45.84031107	    -79.38534948	    846.66485150	    -47.19570634	     13.36277627	     34.38076404	     28.60706115	     45.00000000	    -45.00000000	    270.91116382	  -1366.44366671	     21.66497989	   -162.37471381	   2518.55353516	    159.86902498	     15.48394184	     15.12679273	     -7.13242404	    -45.00000000	    -40.53650088	     45.00000000	    -45.00000000	   3705.15167200	  -2440.02421604	     26.17131675	     31.10189385	   1067.93747316	     34.35710318	     15.03117020	    -19.10801443
      7.04000000	     24.84620982	     31.38931514	     46.09643224	    -78.17452619	    846.28572862	    -47.13947483	     13.44106798	     34.42885433	     28.58929019	     45.00000000	    -45.00000000	    271.04297238	  -1366.46084369	     21.68519047	   -162.54071980	   2518.59368260	    159.97527057	     15.43110613	     15.01204124	     -7.20759296	    -45.00000000	    -40.56579660	     45.00000000	    -45.00000000	   3705.07385004	  -2440.00315379	     26.11588580	     31.24247070	   1067.91995521	     34.40360984	     15.03724907	    -19.01290083
      7.05000000	     24.93310953	     31.36564704	     46.13893644	    -76.94037850	    845.89401649	    -47.08258686	     13.35791910	     34.37613687	     28.77018038	     45.00000000	    -45.00000000	    271.06062012	  -1366.51205907	     21.71414317	   -162.61419955	   2518.60239855	    160.13964093	     15.32834566	     15.22814436	     -7.19534325	    -45.00000000	    -40.47817065	     45.00000000	    -45.00000000	   3705.06500303	  -2440.10851235	     26.22631629	     31.38825556	   1067.85836633	     34.46730325	     15.08902008	    -18.92568815
      7.06000000	     24.91796566	     31.42028789	     46.22957731	    -75.68124444	    845.48860260	    -47.02452117	     13.40056778	     34.49073934	     28.69297924	     45.00000000	    -45.00000000	    271.11684419	  -1366.52227288	     21.82141141	   -162.80666268	   2518.56164678	    160.28935261	     15.33589946	     15.13155336	     -7.32332039	    -45.00000000	    -40.43006242	     45.00000000	    -45.00000000	   3704.95714831	  -2440.14159568	     26.25714878	     31.63907818	   1067.83038014	     34.51753243	     15.11466101	    -18.89189560
